<?xml version="1.0" standalone="no"?><!DOCTYPE svg PUBLIC "-//W3C//DTD SVG 1.1//EN" "http://www.w3.org/Graphics/SVG/1.1/DTD/svg11.dtd"><svg t="1571898407087" class="icon" viewBox="0 0 1024 1024" version="1.1" xmlns="http://www.w3.org/2000/svg" p-id="1134" xmlns:xlink="http://www.w3.org/1999/xlink" width="200" height="200"><defs><style type="text/css"></style></defs><path d="M864.157 704.004a159.918 159.918 0 0 0-154.75 119.998H216.165a135.998 135.998 0 0 1 0-271.997h591.993a215.998 215.998 0 0 0 0-431.995H314.916a159.998 159.998 0 1 0 0 80h493.242a135.998 135.998 0 0 1 0 271.996H216.165a215.998 215.998 0 0 0 0 431.995h493.242a159.926 159.926 0 1 0 154.75-199.997zM160.166 240.009a80 80 0 1 1 79.999-79.999 80 80 0 0 1-80 80z m703.991 703.992a80 80 0 1 1 80-80 80 80 0 0 1-80 80z" p-id="1135" fill="#cdcdcd"></path></svg>